<?xml version="1.0" encoding="UTF-8"?>
<svg id="Layer_1" data-name="Layer 1" xmlns="http://www.w3.org/2000/svg" viewBox="0 0 1461.28 1461.28">
  <defs>
    <style>
      .cls-1 {
        fill: none;
        stroke-width: 8.12px;
      }

      .cls-1, .cls-2, .cls-3, .cls-4 {
        stroke: #fff;
        stroke-miterlimit: 10;
      }

      .cls-2 {
        fill: #d82e2a;
      }

      .cls-2, .cls-3, .cls-4 {
        stroke-width: 2.8px;
      }

      .cls-3 {
        fill: #132c50;
      }

      .cls-4 {
        fill: #eed202;
      }

      .cls-5 {
        fill: #fff;
      }
    </style>
  </defs>
  <g>
    <path class="cls-1" d="M730.64,28.08C342.63,28.08,28.08,342.63,28.08,730.64s314.54,702.56,702.56,702.56,702.56-314.54,702.56-702.56S1118.65,28.08,730.64,28.08ZM730.64,1265.53c-295.42,0-534.9-239.48-534.9-534.9S435.22,195.74,730.64,195.74s534.9,239.48,534.9,534.9-239.48,534.9-534.9,534.9h0Z"/>
    <g>
      <g>
        <path class="cls-5" d="M809.73,374.89l-33.2-19.33c-.2-.12-6.48-3.85-19.67-3.85h-25.71c.09,5.39-1.11,13.82-8.34,19.5,27.14.41,58.86,2.36,93.06,7.24l-6.15-3.58h0Z"/>
        <path class="cls-5" d="M1070.78,458.42c-77.01-46.28-161.16-75.88-250.16-87.99l-39.3-22.87c-.32-.21-8.05-5.18-24.47-5.18h-52.44c-16.42,0-24.15,4.97-24.37,5.11l-39.4,22.93c-89,12.11-173.16,41.71-250.16,87.99l-1,.6v12.28l1.32.51c31.48,12.25,64.42,22.7,98.41,31.32h482.84c34-8.62,66.93-19.08,98.41-31.32l1.32-.51v-12.28l-1-.6h0ZM730.63,442.06c-95.37,0-187.01,6.39-272.49,18.13-1.03.7-20.94,15.02,26.47,37.43-31.36-8.17-61.81-17.87-90.98-29.16v-7.09c76.4-45.73,159.88-74.98,248.13-86.91l.41-.11.25-.16,39.8-23.17c.07-.05,7.15-4.49,22.19-4.49h52.44c15.04,0,22.12,4.45,22.29,4.55l39.71,23.12.31.16.34.1c78.07,10.56,152.39,34.66,221.39,71.74-22.56-10.06-57.98-24.63-100.69-38.12-36.13-12.24-73.38-21.26-111.55-27.01.05,0,.16,0,.16,0-.26-.04-.5-.07-.76-.11-.16-.03-.31-.05-.47-.07l.05-.04-3.04-.43h0c-16.24-2.54-30-3.56-41.68-3.42-21.46-1.31-48.5-2.58-76.65-2.94-45.28,1.52-74.06,7.01-74.06,7.01,27.72-2.88,58.52-3.85,87.37-3.86,1.34,11.54-5.09,48.67-138.78,60.29-99.88,8.68-148.12,15.87-170.2,20.02-3.95,2.23-7.88,4.48-11.8,6.8v.48c101.85-17.55,213.98-27.3,331.82-27.3,1.54,0,3.07.02,4.6.03,41.66.31,182.18,3.57,329.11,32.15-102.35-17.76-215.15-27.62-333.72-27.62h0Z"/>
      </g>
      <rect class="cls-5" x="319.39" y="963.62" width="819.88" height="29.64"/>
      <rect class="cls-5" x="328.7" y="823.87" width="801.26" height="29.64"/>
      <path class="cls-5" d="M297.23,509.69v5.92c1.26,11.38,8.19,25.23,34.05,25.23h-1.28v29.64h25.04v48.77h-34.35v29.66h819.88v-29.66h-34.36v-48.77h25.04v-29.64h-1.28c25.86,0,32.79-13.85,34.06-25.46v-5.69H297.23ZM1136.43,644.73H324.84v-21.33s783.53,1.61,811.59,21.33ZM376.04,606.29v-35.83h100.73v35.83h-100.73ZM497.72,606.29v-35.83h100.73v35.83h-100.73ZM619.42,606.29v-35.83h100.73v35.83h-100.73ZM741.11,606.29v-35.83h100.73v35.83h-100.73ZM862.8,606.29v-35.83h100.73v35.83h-100.73ZM984.49,606.29v-35.83h100.74v35.83h-100.74ZM334.16,566.32v-21.35h445.86c159.1,1.73,326.1,7,347.09,21.35H334.16Z"/>
      <g>
        <rect class="cls-5" x="355.1" y="655.43" width="36.16" height="161.88"/>
        <rect class="cls-5" x="420.11" y="655.43" width="36.16" height="161.88"/>
        <rect class="cls-5" x="485.12" y="655.43" width="36.11" height="161.88"/>
        <rect class="cls-5" x="550.09" y="655.43" width="36.14" height="161.88"/>
        <rect class="cls-5" x="615.08" y="655.43" width="36.14" height="161.88"/>
        <rect class="cls-5" x="680.08" y="655.43" width="36.11" height="161.88"/>
        <rect class="cls-5" x="745.04" y="655.43" width="36.16" height="161.88"/>
        <rect class="cls-5" x="810.05" y="655.43" width="36.16" height="161.88"/>
        <rect class="cls-5" x="875.06" y="655.43" width="36.16" height="161.88"/>
        <rect class="cls-5" x="940.06" y="655.43" width="36.11" height="161.88"/>
        <rect class="cls-5" x="1005.03" y="655.43" width="36.14" height="161.88"/>
        <rect class="cls-5" x="1070.03" y="655.43" width="36.14" height="161.88"/>
      </g>
      <g>
        <rect class="cls-5" x="1070.03" y="860.04" width="36.14" height="97.04"/>
        <rect class="cls-5" x="1005.03" y="860.04" width="36.14" height="97.04"/>
        <rect class="cls-5" x="940.06" y="860.04" width="36.11" height="97.04"/>
        <rect class="cls-5" x="875.06" y="860.04" width="36.16" height="97.04"/>
        <rect class="cls-5" x="810.05" y="860.04" width="36.16" height="97.04"/>
        <rect class="cls-5" x="745.04" y="860.04" width="36.16" height="97.04"/>
        <rect class="cls-5" x="680.08" y="860.04" width="36.11" height="97.04"/>
        <rect class="cls-5" x="615.08" y="860.04" width="36.14" height="97.04"/>
        <rect class="cls-5" x="550.09" y="860.04" width="36.14" height="97.04"/>
        <rect class="cls-5" x="485.12" y="860.04" width="36.11" height="97.04"/>
        <rect class="cls-5" x="420.11" y="860.04" width="36.16" height="97.04"/>
        <rect class="cls-5" x="355.1" y="860.04" width="36.16" height="97.04"/>
      </g>
    </g>
    <g>
      <rect class="cls-3" x="607.26" y="1090.76" width="82.25" height="41.13"/>
      <rect class="cls-4" x="689.51" y="1090.76" width="82.25" height="41.13"/>
      <rect class="cls-2" x="771.76" y="1090.76" width="82.25" height="41.13"/>
    </g>
  </g>
  <g>
    <path class="cls-5" d="M135.95,448.11c2.6-5.5,5.7-9.77,9.3-12.8,3.6-3.03,7.54-4.78,11.83-5.25,4.29-.46,8.81.43,13.57,2.68,4.75,2.25,8.31,5.18,10.68,8.79,2.36,3.61,3.51,7.77,3.45,12.48-.06,4.71-1.4,9.81-4,15.31l-6.31,13.34,22.41,10.6-8.29,17.52-67.23-31.81,14.6-30.86ZM166.33,465.85c1.74-3.67,2.28-6.79,1.64-9.39-.64-2.59-2.53-4.62-5.65-6.1-3.12-1.48-5.89-1.64-8.3-.5-2.41,1.15-4.48,3.55-6.22,7.22l-5.01,10.59,18.54,8.77,5.01-10.59Z"/>
    <path class="cls-5" d="M175.07,376.2c4.08-6.31,8.88-10.92,14.39-13.84,5.51-2.92,11.46-4.06,17.85-3.42,6.39.64,12.95,3.15,19.7,7.51,6.75,4.37,11.72,9.33,14.93,14.89,3.2,5.56,4.6,11.45,4.2,17.68-.41,6.23-2.65,12.49-6.73,18.8-4.08,6.31-8.89,10.94-14.42,13.89-5.53,2.95-11.49,4.11-17.88,3.46-6.38-.64-12.95-3.15-19.7-7.51-6.75-4.37-11.72-9.33-14.93-14.89-3.2-5.56-4.59-11.47-4.17-17.73.42-6.26,2.68-12.54,6.76-18.85ZM187.84,384.46c-1.96,3.03-2.89,6.05-2.78,9.07.1,3.02,1.24,6,3.42,8.92,2.18,2.93,5.41,5.78,9.7,8.56,4.23,2.74,8.14,4.51,11.73,5.31,3.6.81,6.79.64,9.59-.51,2.8-1.14,5.18-3.23,7.13-6.26,1.96-3.03,2.88-6.03,2.75-9.02-.12-2.99-1.29-5.96-3.5-8.91-2.21-2.95-5.42-5.79-9.65-8.53-4.29-2.78-8.21-4.55-11.78-5.34-3.56-.78-6.73-.62-9.51.49-2.78,1.11-5.14,3.18-7.1,6.21Z"/>
    <path class="cls-5" d="M266.36,353.73l24.04-28.52,11.46,9.66-36.53,43.34-56.87-47.93,12.49-14.82,45.41,38.27Z"/>
    <path class="cls-5" d="M270.18,262.12l52.55,52.63-13.72,13.69-52.55-52.63,13.72-13.69Z"/>
    <path class="cls-5" d="M333.55,206.99l9.58,11.52-18.63,15.49,37.97,45.66-14.9,12.39-37.97-45.66-18.72,15.56-9.58-11.52,52.25-43.44Z"/>
    <path class="cls-5" d="M388.49,259.14l-40.5-62.38,48.58-31.54,8.16,12.57-32.32,20.99,8.22,12.66,25.71-16.69,7.67,11.81-25.71,16.69,8.29,12.76,33.55-21.79,8.16,12.57-49.81,32.34Z"/>
    <path class="cls-5" d="M431.75,146.68l32.14,67.07-17.48,8.38-32.14-67.07,17.48-8.38ZM479.42,156.44l6.48,13.51-43.9,21.04-6.48-13.52,43.9-21.04ZM474.84,126.03l32.14,67.07-17.48,8.38-32.14-67.07,17.48-8.38Z"/>
    <path class="cls-5" d="M561.34,96.81l22.49,70.89-20.52,6.51-34.18-31.36-8.71-8.82-.11.03,4.59,12.97,11.35,35.77-16.33,5.18-22.49-70.89,20.52-6.51,34.18,31.36,8.71,8.82.11-.03-4.59-12.97-11.35-35.77,16.33-5.18Z"/>
    <path class="cls-5" d="M601.92,88.35l15.34,72.77-18.97,4-15.34-72.77,18.97-4Z"/>
    <path class="cls-5" d="M694.69,129.14c-.83,5.31-2.62,9.81-5.37,13.49-2.75,3.68-6.21,6.54-10.36,8.56-4.15,2.03-8.84,3.34-14.07,3.94-7.46.86-14.09.09-19.89-2.31-5.8-2.4-10.47-6.27-14.04-11.6-3.56-5.34-5.8-12-6.72-19.99-.92-7.99-.24-14.98,2.01-20.99,2.26-6,5.94-10.83,11.04-14.48,5.1-3.65,11.35-5.9,18.74-6.74,5.15-.59,9.97-.41,14.47.55,4.49.96,8.41,2.76,11.74,5.4,3.33,2.64,5.89,6.24,7.7,10.8l-16.12,8.77c-1.58-4.51-3.64-7.48-6.19-8.93-2.55-1.45-5.61-1.96-9.2-1.55-3.51.4-6.45,1.61-8.83,3.62-2.38,2.01-4.06,4.8-5.05,8.35-.99,3.56-1.2,7.87-.61,12.94.57,5,1.69,9.15,3.36,12.43,1.66,3.29,3.88,5.64,6.65,7.06,2.77,1.42,6.06,1.91,9.87,1.48,3.58-.41,6.51-1.75,8.78-4.01,2.27-2.26,3.62-5.5,4.05-9.71l18.03,2.92Z"/>
    <path class="cls-5" d="M773.26,151.07l-19.94-.24-4.98-16.85-25.47-.31-5.5,16.72-19.49-.24,27.05-74.05,23.21.28,25.12,74.68ZM726.64,120.52l18.25.22-8.76-30.2-9.49,29.97Z"/>
    <path class="cls-5" d="M808.29,155.23l13.89-73.06,35.54,6.76c8.99,1.79,15.3,4.77,18.95,8.94,3.64,4.17,4.86,9.43,3.65,15.78-.79,4.13-2.68,7.46-5.68,9.99-3,2.53-7.09,3.72-12.27,3.57l-.02.11c5.47,1.8,9.29,4.54,11.46,8.2,2.17,3.66,2.84,7.71,1.99,12.14-1.19,6.27-4.33,10.71-9.41,13.29-5.08,2.59-12.05,3.04-20.91,1.36l-37.2-7.07ZM829.21,145.33l15.61,2.97c3.47.66,6.18.45,8.15-.63,1.96-1.08,3.2-2.95,3.7-5.6.49-2.58.02-4.72-1.42-6.41-1.44-1.69-3.89-2.86-7.36-3.52l-15.61-2.97-3.07,16.16ZM834.88,115.55l13.84,2.63c6.79,1.29,10.69-.72,11.7-6.03,1.01-5.31-1.88-8.62-8.67-9.91l-13.84-2.63-3.03,15.94Z"/>
    <path class="cls-5" d="M966.53,119.68l-13.78,41.85c-3.29,9.99-8.41,16.59-15.36,19.8-6.95,3.21-15.63,3.1-26.05-.33-10.35-3.41-17.38-8.47-21.1-15.19-3.72-6.72-3.93-15.08-.65-25.07l13.78-41.85,18.52,6.1-13.88,42.17c-1.67,5.07-1.83,9.21-.47,12.42,1.35,3.21,4.21,5.54,8.56,6.97,4.42,1.46,8.13,1.3,11.13-.49,3-1.78,5.33-5.2,7-10.27l13.88-42.17,18.41,6.06Z"/>
    <path class="cls-5" d="M1023.54,204.61c-3.53,4.05-7.45,6.9-11.74,8.54-4.29,1.64-8.74,2.22-13.33,1.71-4.59-.5-9.26-1.89-14-4.17-6.77-3.26-11.97-7.45-15.59-12.57-3.62-5.12-5.52-10.89-5.68-17.3-.16-6.41,1.5-13.24,4.98-20.49,3.49-7.24,7.79-12.8,12.9-16.68,5.12-3.87,10.8-5.99,17.07-6.36,6.26-.36,12.74,1.07,19.44,4.29,4.67,2.25,8.65,4.98,11.94,8.19,3.29,3.21,5.64,6.82,7.04,10.83,1.4,4.01,1.66,8.43.75,13.24l-18.31-1.18c1.07-4.65.92-8.27-.47-10.85-1.38-2.58-3.7-4.66-6.95-6.22-3.18-1.53-6.31-2.08-9.4-1.65-3.09.43-6,1.89-8.73,4.37-2.74,2.48-5.21,6.02-7.42,10.62-2.18,4.54-3.45,8.64-3.8,12.3-.35,3.67.27,6.84,1.86,9.52,1.59,2.68,4.11,4.85,7.56,6.51,3.25,1.56,6.44,1.99,9.57,1.29,3.13-.7,6-2.72,8.6-6.05l13.69,12.09Z"/>
    <path class="cls-5" d="M1116.65,201.56l-24.13,36.87c-5.76,8.8-12.41,13.85-19.95,15.16-7.54,1.3-15.9-1.05-25.08-7.05-9.12-5.97-14.6-12.67-16.45-20.13-1.86-7.45.1-15.58,5.86-24.38l24.13-36.87,16.31,10.68-24.31,37.15c-2.92,4.46-4.14,8.42-3.67,11.88.48,3.46,2.63,6.44,6.47,8.95,3.9,2.55,7.52,3.35,10.88,2.41,3.36-.94,6.5-3.65,9.42-8.11l24.31-37.15,16.22,10.61Z"/>
    <path class="cls-5" d="M1161.31,238.33c6.72,5.78,10.58,11.86,11.58,18.23,1.01,6.37-.75,12.17-5.26,17.41-4.95,5.75-10.58,8.54-16.88,8.37-6.3-.17-12.81-3.15-19.52-8.93l-2.03-.41-11.18-9.63-17.72,20.58-14.43-12.43,48.54-56.35,26.89,23.17ZM1143.4,272.42l-6.04,43.44-16.22-13.97,6.83-37.1,15.43,7.64ZM1137.42,261.92c2.85,2.45,5.47,3.72,7.87,3.81,2.4.09,4.68-1.12,6.84-3.63,2.11-2.45,2.94-4.85,2.5-7.22-.44-2.36-2.09-4.77-4.93-7.22l-10.42-8.97-12.28,14.26,10.42,8.97Z"/>
    <path class="cls-5" d="M1142.29,321.53l55.08-49.98,38.92,42.89-11.1,10.07-25.9-28.54-11.18,10.15,20.6,22.7-10.43,9.47-20.6-22.7-11.27,10.22,26.88,29.62-11.1,10.07-39.91-43.98Z"/>
    <path class="cls-5" d="M1204.62,408.04l-21.25,5.32-7.19-10.09,18.7-8.9,9.74,13.67ZM1266.38,352.95c4.01,5.63,6.68,11.22,8.01,16.78,1.33,5.56,1.45,11.12.35,16.7l-15.61-.36c.88-4.59.93-8.89.14-12.9-.78-4.01-2.55-7.94-5.29-11.8-1.61-2.26-3.17-3.92-4.66-4.98-1.49-1.06-2.89-1.59-4.18-1.59-1.29,0-2.49.39-3.59,1.17-1.28.92-1.95,2.29-1.98,4.11-.04,1.82.6,4.3,1.9,7.43l4.97,11.82c2.91,7.06,4.02,12.96,3.33,17.69-.69,4.73-3.26,8.69-7.73,11.87-4.28,3.05-8.69,4.53-13.23,4.45-4.54-.09-8.93-1.52-13.17-4.31-4.24-2.79-8.13-6.66-11.67-11.61-2.88-4.04-5.18-8.21-6.91-12.51-1.73-4.3-2.81-8.51-3.26-12.63-.44-4.11-.31-7.94.39-11.49l15.98.1c-.69,2.79-.92,5.8-.7,9.01.21,3.21.87,6.44,1.97,9.66,1.1,3.23,2.63,6.22,4.59,8.97,1.53,2.14,3.01,3.78,4.47,4.91,1.45,1.13,2.85,1.73,4.18,1.79,1.34.06,2.58-.32,3.75-1.15,1.28-.92,2.04-2.15,2.28-3.7.23-1.55-.26-3.83-1.48-6.83l-5.5-12.96c-1.65-3.99-2.76-7.79-3.34-11.39-.58-3.6-.3-6.96.84-10.08,1.14-3.12,3.4-5.88,6.76-8.28,3.79-2.7,7.91-4.07,12.36-4.11,4.45-.03,8.93,1.3,13.43,3.99,4.5,2.69,8.69,6.76,12.58,12.21Z"/>
    <path class="cls-5" d="M1322.79,449.06l-13.15,7.18-11.61-21.26-52.12,28.47-9.29-17.01,52.12-28.47-11.67-21.36,13.15-7.18,32.57,59.63Z"/>
    <path class="cls-5" d="M1336.58,481.86l-68.26,29.54-7.7-17.79,68.26-29.54,7.7,17.79Z"/>
  </g>
  <g>
    <path class="cls-5" d="M626.85,1378.01l7.26-43.28c.33-1.97.69-4,1.08-6.08.39-2.08.77-4.22,1.14-6.42-2.89,1.86-5.99,3.38-9.32,4.58-3.32,1.2-6.71,1.82-10.15,1.87l.89-16.48c2,.18,4.19.04,6.57-.42,2.38-.46,4.77-1.11,7.18-1.96,2.4-.84,4.6-1.82,6.58-2.93,1.98-1.11,3.54-2.27,4.68-3.49l15.6,2.62-12.61,75.17-18.91-3.17Z"/>
    <path class="cls-5" d="M699.84,1308.71c5.77.3,10.72,1.41,14.86,3.33,4.14,1.92,7.3,4.49,9.48,7.73,2.18,3.24,3.16,7.01,2.93,11.31-.22,4.08-1.4,7.52-3.55,10.34-2.15,2.82-5.23,4.89-9.23,6.22v.12c4.53,1.78,7.98,4.22,10.36,7.31,2.38,3.09,3.45,6.95,3.21,11.56-.23,4.46-1.69,8.26-4.36,11.39-2.67,3.14-6.36,5.49-11.07,7.05-4.71,1.56-10.29,2.17-16.75,1.83-6.38-.34-11.83-1.53-16.35-3.58-4.52-2.05-7.94-4.77-10.27-8.17-2.33-3.4-3.37-7.33-3.14-11.79.24-4.61,1.71-8.33,4.4-11.16,2.69-2.82,6.39-4.89,11.08-6.18v-.12c-3.76-1.66-6.6-4.03-8.52-7.1-1.92-3.07-2.77-6.64-2.56-10.72.23-4.3,1.59-7.95,4.1-10.94,2.51-2.99,5.96-5.22,10.36-6.68,4.39-1.46,9.4-2.05,15.01-1.75ZM696.59,1372.49c2.46.13,4.57-.12,6.34-.76,1.77-.64,3.15-1.67,4.15-3.08,1-1.41,1.55-3.08,1.65-5,.11-2-.27-3.73-1.11-5.2-.85-1.47-2.14-2.62-3.87-3.44-1.73-.82-3.79-1.3-6.17-1.42-2.38-.13-4.5.13-6.34.76-1.85.64-3.27,1.64-4.26,3.01-1,1.38-1.55,3.06-1.65,5.06-.1,1.92.27,3.64,1.12,5.15.85,1.51,2.13,2.68,3.86,3.5,1.73.83,3.82,1.3,6.28,1.43ZM699.19,1323.13c-3.08-.16-5.58.48-7.5,1.92-1.93,1.44-2.96,3.54-3.11,6.31-.14,2.69.67,4.87,2.43,6.55,1.76,1.67,4.18,2.59,7.26,2.75,3.07.16,5.56-.5,7.45-1.98,1.89-1.48,2.91-3.56,3.05-6.26.15-2.77-.64-4.97-2.37-6.6-1.73-1.63-4.13-2.53-7.2-2.69Z"/>
    <path class="cls-5" d="M759.58,1385.65l-2.67-43.8c-.12-2-.23-4.05-.32-6.17-.09-2.11-.2-4.29-.34-6.52-2.4,2.46-5.08,4.65-8.05,6.56-2.97,1.92-6.13,3.28-9.47,4.1l-2.84-16.26c1.99-.28,4.09-.9,6.31-1.89,2.21-.98,4.4-2.16,6.55-3.52,2.15-1.36,4.07-2.81,5.75-4.34,1.68-1.53,2.94-3.01,3.78-4.45l15.79-.96,4.63,76.08-19.14,1.16Z"/>
    <path class="cls-5" d="M815.09,1301.7c5.69-1,10.76-1.04,15.23-.11,4.46.93,8.12,2.73,10.98,5.39,2.85,2.66,4.66,6.12,5.41,10.36.71,4.02.33,7.64-1.13,10.87-1.46,3.23-3.99,5.94-7.59,8.14l.02.11c4.82.71,8.73,2.31,11.75,4.79,3.02,2.48,4.93,5.99,5.73,10.54.78,4.4.22,8.43-1.68,12.08-1.9,3.66-4.96,6.78-9.2,9.36-4.24,2.58-9.54,4.44-15.91,5.56-6.29,1.11-11.87,1.17-16.73.2-4.86-.98-8.81-2.86-11.84-5.65-3.03-2.79-4.94-6.38-5.71-10.78-.8-4.55-.21-8.5,1.78-11.86,1.99-3.36,5.12-6.2,9.4-8.52l-.02-.11c-4.05-.77-7.35-2.44-9.91-5-2.56-2.56-4.2-5.85-4.91-9.86-.75-4.25-.24-8.11,1.53-11.59,1.77-3.48,4.63-6.43,8.58-8.84,3.95-2.42,8.69-4.11,14.23-5.09ZM817.71,1315.9c-3.03.54-5.33,1.72-6.88,3.56-1.55,1.84-2.09,4.12-1.61,6.85.47,2.65,1.75,4.6,3.84,5.83,2.09,1.23,4.66,1.58,7.69,1.05,3.03-.53,5.3-1.74,6.81-3.6,1.51-1.87,2.03-4.13,1.56-6.78-.48-2.73-1.75-4.69-3.8-5.9-2.05-1.2-4.59-1.54-7.62-1ZM826.3,1364.57c2.43-.43,4.43-1.15,6.01-2.17,1.58-1.02,2.7-2.33,3.35-3.93.66-1.6.82-3.35.48-5.25-.35-1.97-1.1-3.58-2.26-4.82-1.16-1.24-2.67-2.07-4.54-2.48-1.87-.41-3.98-.41-6.33,0-2.35.42-4.35,1.14-6.01,2.17-1.66,1.04-2.81,2.33-3.48,3.9-.66,1.56-.82,3.33-.47,5.3.33,1.9,1.08,3.48,2.25,4.76,1.16,1.28,2.68,2.13,4.55,2.54,1.87.41,4.02.4,6.45-.02Z"/>
  </g>
</svg>